<?xml version="1.0" encoding="iso-8859-1"?>
<!-- Generator: Adobe Illustrator 18.1.1, SVG Export Plug-In . SVG Version: 6.00 Build 0)  -->
<svg xmlns="http://www.w3.org/2000/svg" xmlns:xlink="http://www.w3.org/1999/xlink" version="1.1" id="Capa_1" x="0px" y="0px" viewBox="0 0 472.815 472.815" style="enable-background:new 0 0 472.815 472.815;" xml:space="preserve" width="512px" height="512px">
<g>
	<rect x="90.764" y="151.362" width="31.157" height="48.771" fill="#FFFFFF"/>
	<rect x="220.821" y="151.362" width="31.157" height="48.771" fill="#FFFFFF"/>
	<rect x="350.878" y="151.362" width="31.157" height="48.771" fill="#FFFFFF"/>
	<rect x="350.878" y="294.685" width="31.157" height="48.771" fill="#FFFFFF"/>
	<rect x="90.764" y="294.685" width="31.157" height="48.771" fill="#FFFFFF"/>
	<rect x="220.821" y="294.685" width="31.157" height="48.771" fill="#FFFFFF"/>
	<path d="M82.635,343.457v-48.771v-94.552v-48.771V137.17c0-22.817-18.501-41.318-41.318-41.318   S0,114.353,0,137.17v239.793h82.643v-33.506H82.635z" fill="#FFFFFF"/>
	<path d="M212.692,343.457v-48.771v-94.552v-48.771V137.17c0-22.817-18.501-41.318-41.318-41.318   s-41.318,18.501-41.318,41.318v14.192v48.771v94.552v48.771v33.506H212.7v-33.506H212.692z" fill="#FFFFFF"/>
	<path d="M342.749,343.457v-48.771v-94.552v-48.771V137.17c0-22.817-18.501-41.318-41.318-41.318   s-41.318,18.501-41.318,41.318v14.192v48.771v94.552v48.771v33.506h82.643v-33.506H342.749z" fill="#FFFFFF"/>
	<path d="M472.807,137.17c0-22.817-18.501-41.318-41.318-41.318c-22.817,0-41.318,18.501-41.318,41.318   v14.192v48.771v94.552v48.771v33.506h82.643V137.17H472.807z" fill="#FFFFFF"/>
</g>
<g>
</g>
<g>
</g>
<g>
</g>
<g>
</g>
<g>
</g>
<g>
</g>
<g>
</g>
<g>
</g>
<g>
</g>
<g>
</g>
<g>
</g>
<g>
</g>
<g>
</g>
<g>
</g>
<g>
</g>
</svg>
